<svg xmlns="http://www.w3.org/2000/svg" width="36" height="36" viewBox="0 0 36 36">
    <path id="lens" d="M32.027,29.285,24.469,16.207A6.509,6.509,0,0,0,22.992,13.5H35.4a17.8,17.8,0,0,1-3.375,15.785ZM18,11.25a8.019,8.019,0,0,0-1.055.07L23.063.738a17.88,17.88,0,0,1,7.014,3.938,17.451,17.451,0,0,1,4.587,6.574Zm-6.293,4.324L5.59,4.992a18.074,18.074,0,0,1,5.66-3.674A17.521,17.521,0,0,1,18,0a18.692,18.692,0,0,1,2.777.211L13.254,13.254a6.31,6.31,0,0,0-1.547,2.32Zm1.266,6.891H.563A17.784,17.784,0,0,1,0,18,17.554,17.554,0,0,1,3.973,6.715L11.5,19.723a7.1,7.1,0,0,0,1.477,2.742ZM18,24.75a7.2,7.2,0,0,0,1.055-.1L12.938,35.262A17.995,17.995,0,0,1,1.3,24.715H17.789a.467.467,0,0,1,.1.018.467.467,0,0,0,.1.018Zm6.293-4.359L30.41,31.008a18.074,18.074,0,0,1-5.66,3.674,17.274,17.274,0,0,1-9.527,1.072l7.488-12.938a6.693,6.693,0,0,0,1.582-2.426Z" fill="#484848"/>
</svg>
