<svg xmlns="http://www.w3.org/2000/svg" width="108.934" height="87.147" viewBox="0 0 108.934 87.147">
    <path id="Path_49" data-name="Path 49" d="M93.594,11.262H82.7a1.816,1.816,0,1,0,0,3.631H93.594a1.816,1.816,0,0,0,0-3.631ZM55.467,72.991A14.525,14.525,0,1,0,40.942,58.467,14.525,14.525,0,0,0,55.467,72.991Zm0-25.418A10.893,10.893,0,1,1,44.574,58.467,10.893,10.893,0,0,1,55.467,47.574ZM98.823,25.787H95.409V22.156h1.816a5.447,5.447,0,0,0,5.447-5.447V9.447A5.447,5.447,0,0,0,97.225,4H79.069a5.447,5.447,0,0,0-5.447,5.447v7.262a5.447,5.447,0,0,0,5.447,5.447h1.816v3.631H44.574V23.971a5.447,5.447,0,0,0-5.447-5.447H35.5a5.447,5.447,0,0,0-5.447,5.447v1.816H26.418V20.34a5.447,5.447,0,0,0-5.447-5.447H17.34a5.447,5.447,0,0,0-5.447,5.447v5.447A11.111,11.111,0,0,0,1,36.862V83.195a7.952,7.952,0,0,0,7.952,7.952h93.029a7.952,7.952,0,0,0,7.952-7.952V36.9A11.111,11.111,0,0,0,98.823,25.787ZM79.069,18.525a1.816,1.816,0,0,1-1.816-1.816V9.447a1.816,1.816,0,0,1,1.816-1.816H97.225A1.816,1.816,0,0,1,99.04,9.447v7.262a1.816,1.816,0,0,1-1.816,1.816Zm12.709,3.631v3.631H84.516V22.156Zm-58.1,1.816A1.816,1.816,0,0,1,35.5,22.156h3.631a1.816,1.816,0,0,1,1.816,1.816v1.816H33.68ZM15.525,20.34a1.816,1.816,0,0,1,1.816-1.816h3.631a1.816,1.816,0,0,1,1.816,1.816v5.447H15.525ZM4.631,47.574H8.262V69.36H4.631ZM106.3,83.195a4.321,4.321,0,0,1-4.321,4.321H8.952a4.321,4.321,0,0,1-4.321-4.321v-10.2H34.624a25.418,25.418,0,0,0,41.685,0H106.3ZM11.893,69.36V47.574h3.631V69.36Zm7.262,0V47.574h3.631V69.36Zm13.363,0h-6.1V47.574h6.1A25.418,25.418,0,0,0,32.518,69.36Zm1.525-10.893a23.675,23.675,0,0,1,2.941-11.474A21.787,21.787,0,0,1,75.511,49.97a23.893,23.893,0,0,1,0,16.994,21.787,21.787,0,0,1-38.526,2.978,23.675,23.675,0,0,1-2.941-11.474Zm44.844-9.913a3.583,3.583,0,0,0-.363-.98h5.991V69.36H78.525a2.7,2.7,0,0,1,.363-.98A25.6,25.6,0,0,0,78.888,48.554ZM88.147,69.36V47.574h3.631V69.36Zm7.262,0V47.574H99.04V69.36Zm10.893,0h-3.631V47.574H106.3Zm0-25.418H76.31a25.418,25.418,0,0,0-41.685,0H4.631V36.9a7.516,7.516,0,0,1,7.48-7.48H98.823a7.516,7.516,0,0,1,7.48,7.48Z" transform="translate(-1 -4)" fill="#484848"/>
</svg>
