<svg xmlns="http://www.w3.org/2000/svg" width="45.5" height="37.177" viewBox="0 0 45.5 37.177">
    <g id="Component_25_1" data-name="Component 25 – 1" transform="translate(2)">
        <g id="Intersection_2" data-name="Intersection 2" transform="translate(22.5)" fill="none">
            <path d="M0,18.588C0,10.231,4.33,3.06,10.5,0,16.67,3.06,21,10.231,21,18.588S16.67,34.116,10.5,37.177C4.33,34.116,0,26.946,0,18.588Z" stroke="none"/>
            <path d="M 10.499755859375 32.51547622680664 C 12.10797691345215 31.34900093078613 13.50321769714355 29.77279853820801 14.59684562683105 27.8731861114502 C 16.16868591308594 25.1429271697998 16.99951553344727 21.93229675292969 16.99951553344727 18.5883960723877 C 16.99951553344727 15.24440670013428 16.16868591308594 12.03372669219971 14.59684562683105 9.303466796875 C 13.50322437286377 7.403870105743408 12.10802841186523 5.827680110931396 10.499755859375 4.661126136779785 C 8.891483306884766 5.827680110931396 7.496286869049072 7.403870105743408 6.402666091918945 9.303466796875 C 4.830825805664062 12.03372669219971 3.999995946884155 15.24440670013428 3.999995946884155 18.5883960723877 C 3.999995946884155 21.93229675292969 4.830825805664062 25.1429271697998 6.402666091918945 27.8731861114502 C 7.496294498443604 29.77279853820801 8.891534805297852 31.34900093078613 10.499755859375 32.51547622680664 M 10.499755859375 37.17651748657227 C 4.329705715179443 34.11628723144531 -4.140625151194399e-06 26.94586753845215 -4.140625151194399e-06 18.5883960723877 C -4.140625151194399e-06 10.23064708709717 4.329705715179443 3.060496807098389 10.499755859375 -3.164062491123332e-06 C 16.6698055267334 3.060496807098389 20.99951553344727 10.23064708709717 20.99951553344727 18.5883960723877 C 20.99951553344727 26.94586753845215 16.6698055267334 34.11628723144531 10.499755859375 37.17651748657227 Z" stroke="none" fill="#484848"/>
        </g>
        <line id="Line_11" data-name="Line 11" x2="34" transform="translate(0 21.088)" fill="none" stroke="#484848" stroke-width="4"/>
        <line id="Line_12" data-name="Line 12" y2="8" transform="translate(0 15.088)" fill="none" stroke="#484848" stroke-width="4"/>
        <line id="Line_13" data-name="Line 13" y2="8" transform="translate(32 15.088)" fill="none" stroke="#484848" stroke-width="4"/>
        <line id="Line_14" data-name="Line 14" y2="8" transform="translate(16 15.088)" fill="none" stroke="#484848" stroke-width="4"/>
        <line id="Line_15" data-name="Line 15" y2="6" transform="translate(8 17.088)" fill="none" stroke="#484848" stroke-width="4"/>
    </g>
</svg>
