<svg id="iso-outline" xmlns="http://www.w3.org/2000/svg" width="33.75" height="24.107" viewBox="0 0 33.75 24.107">
    <path id="Path_59" data-name="Path 59" d="M27.4,24.429H23.786a2.411,2.411,0,0,1-2.411-2.411V14.786a2.411,2.411,0,0,1,2.411-2.411H27.4a2.411,2.411,0,0,1,2.411,2.411v7.232A2.411,2.411,0,0,1,27.4,24.429Zm-3.616-9.643v7.232H27.4V14.786Z" transform="translate(-0.884 -6.348)" fill="#484848"/>
    <path id="Path_60" data-name="Path 60" d="M17.277,24.429H11.25V22.018h6.027V19.607H13.661A2.411,2.411,0,0,1,11.25,17.2V14.786a2.411,2.411,0,0,1,2.411-2.411h6.027v2.411H13.661V17.2h3.616a2.411,2.411,0,0,1,2.411,2.411v2.411A2.411,2.411,0,0,1,17.277,24.429Z" transform="translate(-1.607 -6.348)" fill="#484848"/>
    <path id="Path_61" data-name="Path 61" d="M6.75,12.375H9.161V24.429H6.75Z" transform="translate(-1.929 -6.348)" fill="#484848"/>
    <path id="Path_62" data-name="Path 62" d="M33.589,6.75H4.661A2.411,2.411,0,0,0,2.25,9.161V28.446a2.411,2.411,0,0,0,2.411,2.411H33.589A2.411,2.411,0,0,0,36,28.446V9.161A2.411,2.411,0,0,0,33.589,6.75ZM4.661,28.446V9.161H33.589V28.446Z" transform="translate(-2.25 -6.75)" fill="#484848"/>
</svg>
