<svg id="logo" xmlns="http://www.w3.org/2000/svg" width="616.898" height="206.941" viewBox="0 0 616.898 206.941">
  <g id="Group_1" data-name="Group 1" transform="translate(-112.496 -194.167)">
    <path id="Path_1" data-name="Path 1" d="M120.994,221.282a24.5,24.5,0,0,0-8.5,1.536V355.744h33.026V245.812A24.529,24.529,0,0,0,120.994,221.282Z" fill="rgba(255,255,255,0.87)"/>
    <path id="Path_2" data-name="Path 2" d="M184.271,224.592a53.114,53.114,0,0,0-35.251-.149c.326.108.651.2.976.318a53.352,53.352,0,0,1-.461,100.72,53.353,53.353,0,0,0,34.736-100.889Z" fill="rgba(255,255,255,0.87)"/>
  </g>
  <path id="Path_3" data-name="Path 3" d="M255.5,227.5a16.584,16.584,0,1,0-16.586-16.584A16.585,16.585,0,0,0,255.5,227.5Z" transform="translate(-112.496 -194.167)" fill="rgba(255,255,255,0.87)"/>
  <path id="Path_4" data-name="Path 4" d="M271.947,239.835H238.92V304a24.529,24.529,0,0,0,39.7,19.273l15.956-12.561H271.947Z" transform="translate(-112.496 -194.167)" fill="rgba(255,255,255,0.87)"/>
  <path id="Path_5" data-name="Path 5" d="M370.223,259.191l19.1-37.742H351.131Z" transform="translate(-112.496 -194.167)" fill="rgba(255,255,255,0.87)"/>
  <path id="Path_6" data-name="Path 6" d="M298.107,221.448l54.232,107.2h36.979l-54.128-107.2Z" transform="translate(-112.496 -194.167)" fill="rgba(255,255,255,0.87)"/>
  <path id="Path_7" data-name="Path 7" d="M298.107,328.647H336.3L317.2,290.9Z" transform="translate(-112.496 -194.167)" fill="rgba(255,255,255,0.87)"/>
  <path id="Path_8" data-name="Path 8" d="M428.128,255.063a16.751,16.751,0,1,0-16.751-16.75A16.75,16.75,0,0,0,428.128,255.063Z" transform="translate(-112.496 -194.167)" fill="rgba(255,255,255,0.87)"/>
  <path id="Path_9" data-name="Path 9" d="M492.124,245.977A24.491,24.491,0,0,0,459.1,222.983V304.1a24.531,24.531,0,0,0,39.7,19.275l15.791-12.431-22.468.03Z" transform="translate(-112.496 -194.167)" fill="rgba(255,255,255,0.87)"/>
  <path id="Path_10" data-name="Path 10" d="M454.033,271.65a42.448,42.448,0,0,0-16.844-3.417c-20.192,0-36.558,13.592-36.558,30.361S417,328.956,437.186,328.956a42.5,42.5,0,0,0,16.847-3.417c-11.709-5.061-19.71-15.224-19.71-26.945S442.324,276.711,454.033,271.65Z" transform="translate(-112.496 -194.167)" fill="rgba(255,255,255,0.87)"/>
  <path id="Path_11" data-name="Path 11" d="M592.461,221.553,625.3,194.167H592.461Z" transform="translate(-112.496 -194.167)" fill="rgba(255,255,255,0.87)"/>
  <path id="Path_12" data-name="Path 12" d="M572.087,221.448c8.474,3.737,14.293,22.233,14.293,44.464s-7.031,40.777-14.293,44.465c21.292,0,45.265-17.534,45.265-44.465S593.382,221.448,572.087,221.448Z" transform="translate(-112.496 -194.167)" fill="rgba(255,255,255,0.87)"/>
  <path id="Path_13" data-name="Path 13" d="M616.449,342.835a19.67,19.67,0,0,0-1.518-3.6A20.049,20.049,0,0,0,597.3,328.744H537.313l.028-18.367-10.165,12.909a20.055,20.055,0,0,0,15.757,32.458h59.986l-.027,18.365L613.053,361.2a20.033,20.033,0,0,0,3.96-8.789c.006-.03.178-1.115.23-1.631.006-.076.021-.15.027-.226q.078-.873.079-1.756a20.249,20.249,0,0,0-.406-4.043A19.284,19.284,0,0,0,616.449,342.835Z" transform="translate(-112.496 -194.167)" fill="rgba(255,255,255,0.87)"/>
  <path id="Path_14" data-name="Path 14" d="M567.849,310.377c-7.259-3.688-14.291-22.232-14.291-44.465s5.82-40.727,14.291-44.464c-21.292,0-45.262,17.534-45.262,44.464S546.557,310.377,567.849,310.377Z" transform="translate(-112.496 -194.167)" fill="rgba(255,255,255,0.87)"/>
  <path id="Path_15" data-name="Path 15" d="M540.74,374.11h0l.027-18.365L530.6,368.653a20.052,20.052,0,0,0,15.757,32.455h25.727a20.021,20.021,0,0,0,18.8-27Z" transform="translate(-112.496 -194.167)" fill="rgba(255,255,255,0.87)"/>
  <path id="Path_16" data-name="Path 16" d="M664.477,266.167a53.781,53.781,0,0,1,14.03-44.6A53.887,53.887,0,1,0,726.58,311.58c-.339.056-.675.124-1.021.174A53.891,53.891,0,0,1,664.477,266.167Z" transform="translate(-112.496 -194.167)" fill="rgba(255,255,255,0.87)"/>
  <path id="Path_17" data-name="Path 17" d="M700.908,257.737,675.829,277.3h49.894c13.863-35.835-14.324-55.852-38.04-55.852C705.113,238.366,700.908,257.737,700.908,257.737Z" transform="translate(-112.496 -194.167)" fill="rgba(255,255,255,0.87)"/>
</svg>
